<svg xmlns="http://www.w3.org/2000/svg" xmlns:xlink="http://www.w3.org/1999/xlink" viewBox="0 0 32 32">
  <defs>
    <path id="svg-calendar" d="M13.625 17h-1.25a.376.376 0 0 1-.375-.375v-1.25c0-.206.169-.375.375-.375h1.25c.206 0 .375.169.375.375v1.25a.376.376 0 0 1-.375.375zM17 16.625v-1.25a.376.376 0 0 0-.375-.375h-1.25a.376.376 0 0 0-.375.375v1.25c0 .206.169.375.375.375h1.25a.376.376 0 0 0 .375-.375zm3 0v-1.25a.376.376 0 0 0-.375-.375h-1.25a.376.376 0 0 0-.375.375v1.25c0 .206.169.375.375.375h1.25a.376.376 0 0 0 .375-.375zm-3 3v-1.25a.376.376 0 0 0-.375-.375h-1.25a.376.376 0 0 0-.375.375v1.25c0 .206.169.375.375.375h1.25a.376.376 0 0 0 .375-.375zm-3 0v-1.25a.376.376 0 0 0-.375-.375h-1.25a.376.376 0 0 0-.375.375v1.25c0 .206.169.375.375.375h1.25a.376.376 0 0 0 .375-.375zm6 0v-1.25a.376.376 0 0 0-.375-.375h-1.25a.376.376 0 0 0-.375.375v1.25c0 .206.169.375.375.375h1.25a.376.376 0 0 0 .375-.375zm3-8.125v11a1.5 1.5 0 0 1-1.5 1.5h-11A1.5 1.5 0 0 1 9 22.5v-11a1.5 1.5 0 0 1 1.5-1.5H12V8.375c0-.206.169-.375.375-.375h1.25c.206 0 .375.169.375.375V10h4V8.375c0-.206.169-.375.375-.375h1.25c.206 0 .375.169.375.375V10h1.5a1.5 1.5 0 0 1 1.5 1.5zm-1.5 10.813V13h-11v9.313c0 .103.084.187.188.187h10.624a.188.188 0 0 0 .188-.188z"/>
  </defs>
  <use xlink:href="#svg-calendar" x="0" y="0" fill="#464a55" />
</svg>
