<svg xmlns="http://www.w3.org/2000/svg" xmlns:xlink="http://www.w3.org/1999/xlink" viewBox="0 0 32 32">
  <defs>
    <path id="svg-clock" d="M16 8c-4.42 0-8 3.58-8 8s3.58 8 8 8 8-3.58 8-8-3.58-8-8-8zm0 14.452A6.45 6.45 0 0 1 9.548 16 6.45 6.45 0 0 1 16 9.548 6.45 6.45 0 0 1 22.452 16 6.45 6.45 0 0 1 16 22.452zm1.994-3.368l-2.74-1.99a.39.39 0 0 1-.157-.313v-5.297c0-.213.174-.387.387-.387h1.032c.213 0 .387.174.387.387v4.57l2.155 1.569c.174.125.21.367.084.542l-.607.835a.39.39 0 0 1-.541.084z"/>
  </defs>
  <use xlink:href="#svg-clock" x="0" y="0" fill="#464a55" />
</svg>
