<svg xmlns="http://www.w3.org/2000/svg" xmlns:xlink="http://www.w3.org/1999/xlink" viewBox="0 0 16 16" fill="rgba(0, 0, 0, 0.28)"><defs><path id="search-icon" d="M2.05381824,6.46510044 C2.05381824,4.03336738 4.03272932,2.05311542 6.46585021,2.05311542 C8.89897109,2.05311542 10.8772012,4.03336738 10.8772012,6.46510044 C10.8772012,8.89819544 8.89897109,10.8777664 6.46585021,10.8777664 C4.03272932,10.8777664 2.05381824,8.89819544 2.05381824,6.46510044 M15.8993861,13.9632278 L11.8966196,9.95982295 C12.547631,8.95062989 12.9323814,7.75348996 12.9323814,6.46510044 C12.9323814,2.90023834 10.0300693,8.8817842e-15 6.46585021,8.8817842e-15 C2.89958822,8.8817842e-15 0,2.90023834 0,6.46510044 C0,10.0306435 2.89958822,12.9308819 6.46585021,12.9308819 C7.75289148,12.9308819 8.95072513,12.5488594 9.95992892,11.897174 L13.9626954,15.8998979 C14.0961663,16.0333674 14.31544,16.0333674 14.447549,15.8998979 L15.8993861,14.4480763 C16.033538,14.3146067 16.033538,14.0966973 15.8993861,13.9632278"></path></defs><use fill-rule="evenodd" xlink:href="#search-icon"></use></svg>